<svg xmlns="http://www.w3.org/2000/svg" width="64" height="64" viewBox="0 0 64 64"><path stroke-width="0" d="M52.45 49.699l-9.21-9.21 1.517-2.799a18.036 18.036 0 002.177-8.624c0-10.015-8.119-18.133-18.133-18.133s-18.133 8.119-18.133 18.133c0 10.015 8.119 18.133 18.133 18.133 3.059 0 5.999-.755 8.624-2.177l2.799-1.517 9.21 9.21a2.134 2.134 0 003.017-3.017zm3.017-3.017a6.4 6.4 0 01-9.051 9.051l-6.959-6.959A22.303 22.303 0 0128.8 51.466c-12.371 0-22.4-10.029-22.4-22.4s10.029-22.4 22.4-22.4c12.371 0 22.4 10.029 22.4 22.4 0 3.858-.975 7.488-2.692 10.657l6.959 6.959zM28.8 45.067c-8.837 0-16-7.163-16-16s7.163-16 16-16 16 7.163 16 16-7.163 16-16 16zm0-2.134c7.658 0 13.867-6.208 13.867-13.867S36.459 15.199 28.8 15.199c-7.658 0-13.867 6.208-13.867 13.867S21.141 42.933 28.8 42.933zm0-25.6v2.133a9.6 9.6 0 00-9.6 9.6h-2.133c0-6.48 5.253-11.733 11.733-11.733z"/></svg>